<?xml version="1.0" encoding="utf-8"?>
<!-- Generator: Adobe Illustrator 18.1.1, SVG Export Plug-In . SVG Version: 6.00 Build 0)  -->
<svg version="1.1" id="Layer_1" xmlns="http://www.w3.org/2000/svg" xmlns:xlink="http://www.w3.org/1999/xlink" x="0px" y="0px"
	 viewBox="0 0 49.8 54.3" enable-background="new 0 0 49.8 54.3" xml:space="preserve">
<g>
	<g>
		<path fill="#005B7A" d="M46.7,43L32.9,27.3l13.8-15.8C49,9.2,49,5.4,46.7,3c-2.3-2.3-6.1-2.3-8.5,0L24.9,18.2L11.7,3
			C9.3,0.7,5.5,0.7,3.2,3c-2.3,2.3-2.3,6.1,0,8.5L17,27.3L3.2,43c-2.3,2.3-2.3,6.1,0,8.5c2.3,2.3,6.1,2.3,8.5,0l13.3-15.2l13.3,15.2
			c2.3,2.3,6.1,2.3,8.5,0C49,49.2,49,45.4,46.7,43z"/>
	</g>
</g>
</svg>
