<?xml version="1.0" encoding="utf-8"?>
<!-- Generator: Adobe Illustrator 18.1.1, SVG Export Plug-In . SVG Version: 6.00 Build 0)  -->
<svg version="1.1" id="Layer_1" xmlns="http://www.w3.org/2000/svg" xmlns:xlink="http://www.w3.org/1999/xlink" x="0px" y="0px"
	 viewBox="0 0 92.8 92.7" enable-background="new 0 0 92.8 92.7" xml:space="preserve">
<path fill="#005B7A" d="M45.8,0.3C20.4,0.7,0.1,21.5,0.4,46.9c0.3,25.4,21.2,45.7,46.6,45.4C72.5,92,92.8,71.1,92.4,45.7
	C92.1,20.3,71.2,0,45.8,0.3z M45.7,74.3l-0.3,0c-3.9-0.1-6.7-3-6.6-6.9c0.1-3.8,2.9-6.5,6.7-6.5l0.2,0c4,0.1,6.7,3,6.6,6.9
	C52.3,71.7,49.6,74.3,45.7,74.3z M62.1,41.6c-0.9,1.3-2.9,2.9-5.5,4.9l-2.8,1.9c-1.5,1.2-2.5,2.3-2.8,3.4c-0.3,0.9-0.4,1.1-0.4,2.9
	l0,0.5H39.9l0-0.9c0.1-3.7,0.2-5.9,1.8-7.7c2.4-2.8,7.8-6.3,8-6.4c0.8-0.6,1.4-1.2,1.9-1.9c1.1-1.6,1.6-2.8,1.6-4
	c0-1.7-0.5-3.2-1.5-4.6c-0.9-1.3-2.7-2-5.3-2c-2.6,0-4.3,0.8-5.4,2.5c-1.1,1.7-1.6,3.5-1.6,5.3V36H28.4l0-0.5
	c0.3-6.8,2.7-11.6,7.2-14.5c2.8-1.8,6.3-2.7,10.4-2.7c5.3,0,9.9,1.3,13.4,3.9c3.6,2.6,5.4,6.5,5.4,11.6
	C64.8,36.6,63.9,39.2,62.1,41.6z"/>
</svg>
